<svg width="52.377686" height="56.587463" viewBox="0 0 52.3777 56.5875" fill="none" xmlns="http://www.w3.org/2000/svg" xmlns:xlink="http://www.w3.org/1999/xlink">
	<desc>
			Created with Pixso.
	</desc>
	<defs/>
	<path id="Vector" d="M7.29724 1C5.62708 1 4.02539 1.57513 2.84436 2.59882C1.66345 3.62256 1 5.01099 1 6.45874L1 50.1287C1 51.5765 1.66345 52.9649 2.84436 53.9886C4.02539 55.0123 5.62708 55.5875 7.29724 55.5875L45.0804 55.5875C46.7505 55.5875 48.3523 55.0123 49.5332 53.9886C50.7141 52.9649 51.3776 51.5765 51.3776 50.1287L51.3776 17.3762L32.486 1L7.29724 1Z" stroke="#FFFFFF" stroke-opacity="1.000000" stroke-width="2.000000" stroke-linejoin="round"/>
	<path id="Vector" d="M32.4861 1L32.4861 17.3762L51.3777 17.3762" stroke="#FFFFFF" stroke-opacity="1.000000" stroke-width="2.000000" stroke-linejoin="round" stroke-linecap="round"/>
	<path id="Vector" d="M38.7832 31.0232L13.5944 31.0232" stroke="#FFFFFF" stroke-opacity="1.000000" stroke-width="2.000000" stroke-linejoin="round" stroke-linecap="round"/>
	<path id="Vector" d="M38.7832 41.9407L13.5944 41.9407" stroke="#FFFFFF" stroke-opacity="1.000000" stroke-width="2.000000" stroke-linejoin="round" stroke-linecap="round"/>
	<path id="Vector" d="M19.8916 20.1057L16.7429 20.1057L13.5944 20.1057" stroke="#FFFFFF" stroke-opacity="1.000000" stroke-width="2.000000" stroke-linejoin="round" stroke-linecap="round"/>
</svg>
